# xmcd CD Database Entry
#
# Track frame offsets:
# 150
# 14810
# 36497
# 50359
# 65871
# 83865
# 100931
# 117410
# 129207
# 145989
# 168641
#
# Disc length: 2451 seconds
#
# Revision: 1
# Processed by: cddbd v1.4b41PL1 Copyright (c) Steve Scherf et al.
# Submitted via: tcd 2.0b
#
DISCID=a309910b
DTITLE=Maura O'Connel - Helpless Heart
DYEAR=1900
DGENRE=
TTITLE0=Can't Stop The Girl
TTITLE1=Helpless Heart
TTITLE2=Summerfly
TTITLE3=Trouble In The Fields
TTITLE4=Cast A Long Shadow
TTITLE5=Only A Fool
TTITLE6=Just Like The Blues
TTITLE7=Isn't It Always Love
TTITLE8=Bed For The Night
TTITLE9=Western Highway
TTITLE10=You'll Never Know
EXTD=
EXTT0=
EXTT1=
EXTT2=
EXTT3=
EXTT4=
EXTT5=
EXTT6=
EXTT7=
EXTT8=
EXTT9=
EXTT10=
PLAYORDER=
